<svg xmlns="http://www.w3.org/2000/svg" viewBox="0 0 1221.6 480"><path d="M384.5 219.5L384.3 80c0-6.7-4.2-12.7-10.5-15l-176-64c-3.5-1.3-7.4-1.3-10.9 0l-176 64C4.5 67.3.3 73.3.3 80L.2 219.5C-.9 333.7-1.7 416.2 187.3 479.2c1.6.5 3.4.8 5.1.8s3.4-.3 5.1-.8c188.8-63 188.1-145.5 187-259.7zM208.3 318v18c0 8.8-7.2 16-16 16s-16-7.2-16-16v-18c-10-2.3-19.4-6.5-27.1-12.8-6.9-5.6-7.9-15.7-2.3-22.5 5.6-6.9 15.6-7.9 22.5-2.3 6 4.9 14.2 7.6 22.9 7.6 17.3 0 32-11 32-24s-14.7-24-32-24c-35.3 0-64-25.1-64-56 0-26 20.5-47.7 48-54v-18c0-8.8 7.2-16 16-16s16 7.2 16 16v18c10 2.3 19.4 6.5 27.1 12.8 6.9 5.6 7.9 15.6 2.3 22.5-5.6 6.9-15.7 7.9-22.5 2.3-6-4.9-14.2-7.6-22.9-7.6-17.3 0-32 11-32 24s14.7 24 32 24c35.3 0 64 25.1 64 56 0 26-20.5 47.7-48 54z" fill="#4184dd"/><path d="M660.8 197.8c8 7.5 12 18.2 12 32.1V308h-32.6v-71.6c0-8.2-1.8-14.3-5.5-18.2-3.7-3.9-8.7-5.8-15-5.8-7.6 0-13.9 2.8-18.8 8.3-4.9 5.6-7.4 13.3-7.4 23.3v64h-32.6v-71.6c0-8.2-1.8-14.3-5.5-18.2-3.7-3.9-8.7-5.8-15.2-5.8-7.1 0-13.3 2.7-18.4 8.2-5.2 5.5-7.7 13.6-7.7 24.4v63h-32.6V189h29.3l1 21.2c4-7.8 9.4-13.6 16.3-17.6 6.9-4 14.6-6 23.2-6 8.9 0 16.8 2.1 23.7 6.2 6.9 4.1 11.9 10.1 15.1 17.9 3.8-7.8 9.4-13.7 16.7-17.9 7.3-4.1 15.2-6.2 23.8-6.2 12.1 0 22.2 3.7 30.2 11.2zm138 5.2c10.7 10.9 16.1 26.1 16.1 45.5s-5.4 34.5-16.1 45.5-25.7 16.4-44.9 16.4-34.2-5.5-44.9-16.4-16-26.1-16-45.5 5.4-34.5 16.1-45.5 25.7-16.4 44.9-16.4 34.1 5.5 44.8 16.4zm-65.9 17.3c-4.8 6.3-7.3 15.7-7.3 28.2s2.4 21.9 7.3 28.2c4.8 6.3 11.9 9.4 21.1 9.4 9.2 0 16.2-3.1 21.1-9.4 4.8-6.3 7.3-15.7 7.3-28.2s-2.4-21.9-7.3-28.2c-4.8-6.3-11.9-9.4-21.1-9.4-9.2 0-16.3 3.1-21.1 9.4zm204.9-22.5c7.9 7.5 11.8 18.2 11.8 32.1V308H917v-68.5c0-18.1-7.1-27.1-21.2-27.1-7.6 0-14.1 2.7-19.4 8.1-5.3 5.4-8 13.6-8 24.8V308h-32.6V189h29.3l1 21.2c4-7.8 9.4-13.6 16.4-17.6 7-4 15.1-6 24.3-6 12.8 0 23.2 3.7 31 11.2zm148.4 63.1H1002c3.3 16.8 13.2 25.2 29.7 25.2 6.8 0 12.5-1.3 16.9-3.8 4.4-2.5 7.5-6.2 9.3-10.9l26.7 9.8c-3.8 9.5-10.2 16.8-19.2 21.8s-20.2 7.5-33.7 7.5c-19.7 0-34.9-5.4-45.7-16.3-10.8-10.9-16.2-26.1-16.2-45.6s5.2-34.7 15.7-45.6c10.5-10.9 25.2-16.3 44.3-16.3 18.4 0 32.6 5.3 42.5 15.9 9.9 10.6 14.9 25.8 14.9 45.5 0 4.4-.4 8.7-1 12.8zm-75.6-43.3c-4.7 4.6-7.7 11.4-8.9 20.5h55.5c-1.3-8.9-4.3-15.7-9-20.3-4.8-4.7-10.9-7-18.6-7-8-.1-14.3 2.2-19 6.8zm207 43.3h-84.3c3.3 16.8 13.2 25.2 29.8 25.2 6.8 0 12.5-1.3 16.9-3.8 4.4-2.5 7.5-6.2 9.3-10.9l26.7 9.8c-3.8 9.5-10.2 16.8-19.2 21.8s-20.2 7.5-33.7 7.5c-19.7 0-34.9-5.4-45.7-16.3-10.8-10.9-16.2-26.1-16.2-45.6s5.2-34.7 15.7-45.6c10.5-10.9 25.2-16.3 44.3-16.3 18.4 0 32.6 5.3 42.5 15.9 9.9 10.6 14.9 25.8 14.9 45.5-.1 4.4-.4 8.7-1 12.8zm-75.6-43.3c-4.7 4.6-7.7 11.4-8.9 20.5h55.5c-1.3-8.9-4.3-15.7-9-20.3-4.8-4.7-10.9-7-18.6-7-8-.1-14.3 2.2-19 6.8z" fill="#012c6d"/></svg>