<svg xmlns="http://www.w3.org/2000/svg" viewBox="0 0 440.1 89.5"><path d="M.8.7h42v42H.8V.7z" fill="#f25022"/><path d="M47.2.7h42v42h-42V.7z" fill="#80ba01"/><path d="M379.8 16.7c3.9-2.5 8.9-2.8 13.3-1.6v7.8c-2.1-.9-4.5-1.5-6.7-.6-1.7.7-2.8 2.5-3 4.2-.3 2.2-.1 4.5-.2 6.8h13.3c0-2.9 0-5.8.1-8.6l9-2.7v11.4c3-.1 6 0 9 0v7.4c-3-.1-6 0-9-.1v12.7c.1 2.3-.1 4.7.2 7 .2 1.4.7 2.9 2 3.6 2.2 1.2 4.9.7 6.9-.7v7.4c-2.6 1.1-5.5 1.5-8.3 1.3-2.7-.2-5.4-1.2-7.2-3.3-2-2.4-2.5-5.6-2.6-8.7V40.5h-13.3v30.7h-9.1V40.6c-2.1-.1-4.2 0-6.3 0v-7.3c2.1-.1 4.2 0 6.3 0 .2-3.2-.3-6.5.6-9.7.7-2.7 2.5-5.2 5-6.9zm-194.6.6c1.8-.3 3.8.4 5 1.8 1.4 1.6 1.7 4.1.6 5.9-1.2 2.1-3.8 3-6.1 2.5-2.3-.4-4.3-2.6-4.2-5.1 0-2.5 2.2-4.8 4.7-5.1zm-69.7 1.1h13.2c4.1 10.4 8.3 20.9 12.4 31.3 1.1 2.6 2 5.2 3.1 7.8 5.3-13 10.7-26.1 15.9-39.1 4.2-.1 8.5 0 12.7 0v53h-9.2V32.3c0-.6 0-1.2-.1-1.8-.2.3-.3.6-.5.9-5.2 13.4-10.6 26.7-15.8 40-2.2.1-4.3 0-6.5.1-5.4-13.4-10.8-26.7-16.2-40.1-.2-.3-.3-.6-.5-.8-.1 5.7 0 11.4-.1 17.1v23.7h-8.7c.3-17.7.3-35.3.3-53zm94.7 15c4.4-1.3 9.1-1.2 13.5.1.9.3 1.8.6 2.6 1.1-.1 2.9 0 5.8 0 8.7-2.9-2.2-6.6-3.7-10.4-3.2-3 .3-5.8 1.8-7.5 4.2-2.3 3-2.8 6.9-2.4 10.5.3 2.8 1.5 5.7 3.7 7.5 2.3 2 5.5 2.8 8.5 2.5 3-.4 5.8-1.6 8.2-3.4v8.2c-3.7 2.2-8.2 2.8-12.4 2.6-4.3-.2-8.7-1.9-11.8-4.9-3.4-3.3-5.3-8-5.5-12.7-.2-4.9.8-10 3.6-14.1 2.2-3.5 5.9-6 9.9-7.1zm61.6-.7c4.4-.6 9-.3 13 1.5 3.5 1.6 6.4 4.5 8 8 1.7 3.7 2.1 7.9 1.8 12-.3 4-1.5 7.9-4 11.1-2.5 3.3-6.4 5.6-10.4 6.4-3.5.7-7.1.7-10.7 0-4.2-.9-8.1-3.3-10.5-6.8-2.9-4.1-3.7-9.3-3.3-14.2.3-4.2 1.5-8.4 4.2-11.6 2.8-3.6 7.3-5.8 11.9-6.4zm37.7.1c4.2-.7 8.6-.2 12.6 1.3v8.4c-2.8-1.9-6.2-2.9-9.5-2.8-1.7.1-3.6.8-4.3 2.4-.6 1.6-.2 3.7 1.3 4.6 2.6 1.7 5.7 2.4 8.3 4 2.1 1.2 4.1 2.7 5.2 4.9 2 4.2 1.2 9.7-2.4 12.8-3.4 3.1-8.2 4-12.6 3.8-3.2-.2-6.3-.8-9.2-2.1v-8.8c2.4 1.8 5.2 3.1 8.3 3.6 2.1.3 4.3.4 6.3-.6 1.8-.9 2.2-3.6 1.1-5.2-1-1.2-2.5-1.9-4-2.6-2.7-1.2-5.5-2.2-7.8-4-1.7-1.3-2.9-3.1-3.4-5.1-.7-3-.5-6.4 1.3-9.1 1.7-3 5.2-4.8 8.8-5.5zm34.7-.1c4.5-.6 9.3-.3 13.5 1.8 3.6 1.8 6.4 5.1 7.8 8.8 1.1 2.9 1.5 6 1.4 9.1 0 4.6-1.2 9.3-4.1 12.9-2.7 3.5-6.8 5.8-11.2 6.5-4.3.7-8.8.5-12.8-1.1-4.1-1.6-7.5-4.9-9.2-9-1.8-4.1-2-8.8-1.4-13.2.6-4.4 2.6-8.7 6-11.7 2.8-2.2 6.4-3.6 10-4.1zM246.6 34c2.5-1.5 5.7-1.6 8.4-.7v9.1c-1.8-1.2-4-1.7-6.1-1.4-2.6.3-4.6 2.3-5.7 4.5-1.2 2.4-1.4 5.1-1.3 7.7v18.2h-9v-38c3-.1 6 0 9 0v6.5c1-2.3 2.4-4.6 4.7-5.9zm-65.2-.6c3 0 6-.1 9 0v38h-9v-38z" fill="#777"/><path d="M274.5 39.9c2.7-.2 5.6.6 7.6 2.6 2.1 2.1 2.9 5.1 3.1 7.9.2 3.1 0 6.4-1.3 9.3-.9 1.9-2.4 3.6-4.5 4.4-2.3.9-5 1-7.4.3-2.5-.7-4.6-2.4-5.7-4.7-1.5-2.9-1.7-6.3-1.4-9.5.3-2.9 1.3-5.9 3.5-7.9 1.7-1.5 3.9-2.2 6.1-2.4zm72.2.1c2.6-.2 5.3.4 7.3 2.1 1.8 1.5 2.8 3.8 3.3 6.1.5 2.7.5 5.4.1 8.1-.4 2-1 4-2.3 5.6-1.3 1.6-3.3 2.5-5.3 2.9-2.2.3-4.5.2-6.5-.7-2.2-.9-3.9-2.8-4.8-5-1.1-2.6-1.3-5.5-1.1-8.3.2-2.7 1-5.5 2.8-7.6 1.5-2 4-3.1 6.5-3.2zm58.8.8c3 0 6-.1 9 .1v22.7c-2 1.3-4.7 1.9-6.9.7-1.3-.7-1.8-2.2-2-3.6-.3-2.3-.1-4.7-.2-7 .1-4.4.1-8.7.1-12.9z" fill="#fefefe"/><path d="M.8 47.1h42v42H.8v-42z" fill="#02a4ef"/><path d="M47.2 47.1h42v42h-42v-42z" fill="#ffb902"/></svg>