<svg version="1.1" id="Capa_1" xmlns="http://www.w3.org/2000/svg" x="0" y="0" viewBox="0 0 512 512" xml:space="preserve"><style>.st0{fill:#012c6a}</style><path class="st0" d="M351.4 395.7l-78.3-282 45.2-90.5c2.5-5 2.2-10.8-.7-15.6C314.7 2.9 309.5 0 304 0H144c-5.5 0-10.7 2.9-13.6 7.6-2.9 4.7-3.2 10.6-.7 15.6l45.2 90.5-78.3 282c-1.7 6 .3 12.4 5 16.4l112 96c3 2.6 6.7 3.8 10.4 3.8s7.4-1.3 10.4-3.8l112-96c4.7-4 6.7-10.4 5-16.4z"/><path class="st0" d="M411.3 244.7l-95-95L359 303.5l50-34.3c3.9-2.7 6.5-7 6.9-11.7.5-4.8-1.2-9.5-4.6-12.8z"/></svg>