<svg xmlns="http://www.w3.org/2000/svg" viewBox="0 0 512 512"><path d="M480 400V112c0-17.6-14.3-32-32-32H64c-17.6 0-32 14.4-32 32v288H0v16c0 8.8 7.2 16 16 16h480c8.8 0 16-7.2 16-16v-16h-32zm-32-32H64v-84.9l75.5-28.3c8.8 10.4 21.8 17.2 36.5 17.2 17.4 0 32.6-9.4 41-23.4l72.2 14.2c4.7 21.5 23.9 37.8 46.8 37.8 26.5 0 48-21.5 48-48 0-2.5-.4-4.9-.7-7.3l64.7-40.5V368zm0-200.9l-79.9 50c-8.5-7.7-19.7-12.5-32.1-12.5-18.7 0-34.7 10.8-42.7 26.4l-70-13.8C220 194 200.2 176 176 176c-26.5 0-48 21.5-48 48 0 .3.1.6.1.9l-64.1 24V112h384v55.1z" fill="#012c6a"/></svg>