<svg version="1.1" id="Capa_1" xmlns="http://www.w3.org/2000/svg" x="0" y="0" viewBox="0 0 512 512" xml:space="preserve"><style>.st0{fill:#012c6a}</style><path class="st0" d="M336 32h-34.8C294.7 13.4 276.9 0 256 0s-38.7 13.4-45.3 32H176c-8.8 0-16 7.2-16 16v32c0 8.8 7.2 16 16 16h160c8.8 0 16-7.2 16-16V48c0-8.8-7.2-16-16-16z"/><path class="st0" d="M416 64h-32v16c0 26.5-21.5 48-48 48H176c-26.5 0-48-21.5-48-48V64H96c-17.6 0-32 14.4-32 32v384c0 18 14 32 32 32h320c18 0 32-14 32-32V96c0-18-14-32-32-32zM272 414v18c0 8.8-7.2 16-16 16s-16-7.2-16-16v-18c-10-2.3-19.4-6.5-27.1-12.8-6.9-5.6-7.9-15.6-2.3-22.5 5.6-6.9 15.6-7.9 22.5-2.3 6 4.9 14.2 7.6 22.9 7.6 17.3 0 32-11 32-24s-14.7-24-32-24c-35.3 0-64-25.1-64-56 0-26 20.5-47.7 48-54v-18c0-8.8 7.2-16 16-16s16 7.2 16 16v18c10 2.3 19.4 6.5 27.1 12.8 6.9 5.6 7.9 15.6 2.3 22.5-5.6 6.9-15.7 7.9-22.5 2.3-6-4.9-14.2-7.6-22.9-7.6-17.3 0-32 11-32 24s14.7 24 32 24c35.3 0 64 25.1 64 56 0 26-20.5 47.7-48 54z"/></svg>