<svg version="1.1" id="Layer_1" xmlns="http://www.w3.org/2000/svg" x="0" y="0" viewBox="0 0 130 30" xml:space="preserve"><style>.st0{fill:#ec1d25}</style><g id="XMLID_20_"><path id="XMLID_16_" class="st0" d="M9.2 6.4l3.5 9.3H5.8l3.4-9.3zM7.8 3.1L0 23.8h3l2-5.6h8.7l2 5.6h3L10.8 3.1h-3z"/><path id="XMLID_15_" class="st0" d="M20.1 3.1h2.7v20.7h-2.7z"/><g id="XMLID_19_"><path id="XMLID_12_" class="st0" d="M28.2 21.8V30h-2.7V9.7h2.6v2h.1c.8-1.3 2.6-2.4 4.8-2.4 3.6 0 6.7 3.2 6.7 7.5s-3.1 7.5-6.7 7.5c-2.2 0-4-1.2-4.8-2.5m9-5.1c0-3.2-2.2-5.1-4.5-5.1s-4.5 1.9-4.5 5.1 2.2 5.1 4.5 5.1 4.5-1.9 4.5-5.1"/><path id="XMLID_11_" class="st0" d="M44.4 9.7l-.1 2h.1c.7-1.3 2.6-2.4 4.5-2.4 3.6 0 5.4 2.5 5.4 5.9v8.7h-2.7v-8.2c0-3-1.4-3.9-3.5-3.9-2.3 0-3.8 2.2-3.8 4.4V24h-2.7V3.1h2.7l.1 6.6z"/><path id="XMLID_8_" class="st0" d="M56.5 19.5c0-3.2 2.9-4.9 6.2-4.9 1.9 0 3.3.5 3.9.9v-.4c0-2.2-1.7-3.4-3.7-3.4-1.4 0-2.9.7-3.4 2.1l-2.4-1.1c.4-1.3 2.2-3.4 5.7-3.4s6.3 2.1 6.3 6.1v8.5h-2.6v-2h-.1c-.8 1.2-2.2 2.4-4.7 2.4-2.8 0-5.2-1.8-5.2-4.8m10.1-1.8s-1.1-.9-3.4-.9c-2.8 0-3.9 1.5-3.9 2.8 0 1.5 1.5 2.2 3 2.2 2 0 4.3-1.7 4.3-4.1"/><path id="XMLID_5_" class="st0" d="M74.5 21.8l-.1 2h-2.6V3.1h2.7v6.5l-.1 2h.1c.8-1.3 2.5-2.5 4.8-2.5 3.6 0 6.7 3.2 6.7 7.5s-3.1 7.5-6.7 7.5c-2.2.2-4-1-4.8-2.3m8.9-5.1c0-3.2-2.2-5.1-4.5-5.1-2.4 0-4.5 1.9-4.5 5.1s2.2 5.1 4.5 5.1 4.5-1.9 4.5-5.1"/><path id="XMLID_2_" class="st0" d="M87.5 16.7c0-4 2.8-7.5 7-7.5s7 3 7 7.5v.4H90.3c.2 3 2.3 4.7 4.5 4.7 1.5 0 3.1-.6 3.9-2.4l2.4 1c-.8 2-3 3.9-6.2 3.9-4.5 0-7.4-3.3-7.4-7.6m6.9-5.1c-2 0-3.5 1.3-4 3.4h8.2c-.1-1.2-1.2-3.4-4.2-3.4"/><path id="XMLID_1_" class="st0" d="M104.7 19.5v-7.4h-2.5V9.7h2.5V5.3h2.7v4.3h3.5v2.5h-3.5v7.3c0 1.6.6 2.3 1.9 2.3.4 0 .8-.1 1.2-.3l.9 2.3c-.6.3-1.3.4-2.2.4-2.9-.1-4.5-1.7-4.5-4.6"/></g></g></svg>