<svg xmlns="http://www.w3.org/2000/svg" viewBox="0 0 79.1 137"><ellipse opacity=".15" fill="#231F20" cx="30.1" cy="131.7" rx="30.1" ry="5.3"/><path fill="#FFF" d="M45.7 11.8s-1.4 6.6-5 13.6c-3.2 6.3-7.9 12.8-19 14.7-8.7 1.4-15.3 3.5-20.2 5.6l21.6 5.5 7.6-4.8s10.4-7.9 14-11.3c7.1-6.7 8.9-16.9 8.9-16.9s-4 1.6-7.9-6.4z"/><path fill="#29435C" d="M53.7 18.3s2.1 2.1 4.2 7.4c2.1 5.3 3.2 8.2 3.2 8.2l8.8-9.8 1.6 2.6L61 42.4l-10.8-9.7s-9.7 7.9-16.5 10.5c0 0 9.1-7 12.3-9.9 6.2-6 7.7-15 7.7-15z"/><path fill="#FFF" d="M73 20.7l-.6-2-.9.5-1.7 4.9 1.6 2.6 4.7-4-.7-3.7z"/><path fill="#29435C" d="M23.1 51.2L1.9 49.8c-.1.2-.1.4-.2.6-.8 2.8 1 13.5 2.7 17.8.7 1.6 5.9 8.7 9 17.7 6.1 17.4 11.7 41.2 11.7 41.2l3.7-.6-5.7-75.3z"/><path fill="#29435C" d="M23.1 51.2l-20.6-6c-.1.2-.2.3-.3.5C.7 48.3 0 59 .8 63.6c.3 1.9 3.1 15.1 4.2 26.7 1.7 18.7 1.7 38.4 1.7 38.4l3.8.3 12.6-77.8zM10.5 129l-3.8-.2-1.7 3.8 12.4 1 1.3-1.5zm18.3-2.6l-3.7.6-.8 4.1 12.3-1.9 1-1.7z"/><path fill="#FFF" d="M45.7 11.8l2.6-1 .5-1.6v-6c0-.9.6-1.7 1.5-1.8L56.9.1c.8-.1 1.6.2 2 .9l1.3 2.2v2.7l2.2 4.5-2.4.8v5.5h-6l-.4 1.6c0-.1-4 1.5-7.9-6.5z"/><path fill="#EAEAE9" d="M45.7 11.8s-.1 3.6-1.5 8.2l6.7-2.1 1.3 5.3c1-2.9 1.4-5 1.4-5s-4 1.6-7.9-6.4z"/><path fill="#F05727" d="M48.1 19.1l-.5 2 2.7.8.5-2z"/><path fill="#F05727" d="M48.1 21.2S46.3 33 35.4 36c-10.9 3.1-14 8.2-14 8.2l.8 5.1 7-.4s3.2-5 8.9-8.2c5.7-3.1 11.3-13.4 11.6-19.2l-1.6-.3z"/><path fill="#29435C" d="M49.7 1.5c-.5.1-.8.5-.8 1v6.7l-.1.3 2.8-.5 4.2-3.2V2.2l4.4 1L58.7.7c-.3-.5-.9-.8-1.5-.7l-7.5 1.5zm-7.9 10.3h3.9S43.3 38.1 19.9 42C12.6 43.2 1.5 51.5.5 51.9c0 0-3.4-7.9 8.2-19.3l22.7-18.2 10.4-2.6z"/><path fill="#29435C" d="M10.2 25L3.3 53.6l3.2-.7 7.7-23.3 11.7-4.2 5.4-10.9z"/><path fill="#FFF" d="M6.5 52.9l-2.9.7 1.5 3.2c1.3-.3 2.9-.9 4.5-2.3l-3.1-1.6z"/><path opacity=".25" fill="#231F20" d="M25.9 25.4l-10.7 5.7-7.7 22.3-1-.5 7.7-23.3zm-2.8 25.8l-7.9 39.7 2.1 6.8z"/><path fill="#29435C" d="M73.3 16.6h1.5v8.9h-1.5z"/><path fill="#FFF" d="M75.4 19l-2.6 2.4 1.3 2.9 2-1.6z"/><circle fill="#29435C" cx="74" cy="13.2" r="5.1"/><circle fill="#2EBEC7" cx="74" cy="13.2" r="4.1"/><path fill="#FFF" d="M70.3 13.7c0-2.3 1.9-4.1 4.1-4.1 1.1 0 2.2.5 2.9 1.2-.8-1-1.9-1.7-3.3-1.7-2.3 0-4.1 1.9-4.1 4.1 0 1.2.5 2.2 1.2 2.9-.5-.6-.8-1.5-.8-2.4z"/></svg>