<svg version="1.1" id="Capa_1" xmlns="http://www.w3.org/2000/svg" x="0" y="0" viewBox="0 0 512 512" xml:space="preserve"><style>.st0{fill:#012c6a}</style><path class="st0" d="M368 224c-79.4 0-144 64.6-144 144s64.6 144 144 144 144-64.6 144-144-64.6-144-144-144zm59.3 203.3c-3.1 3.1-7.2 4.7-11.3 4.7s-8.2-1.6-11.3-4.7l-48-48c-3-3-4.7-7.1-4.7-11.3v-64c0-8.8 7.2-16 16-16s16 7.2 16 16v57.4l43.3 43.3c6.3 6.2 6.3 16.4 0 22.6zM204 304.6c-1.2-1.3-2.1-2.9-3.4-4.2L160 259.9l-40.6 40.6C104.3 315.6 96 335.6 96 357v27h96.8c-.5-5.3-.8-10.6-.8-16 0-22.4 4.4-43.7 12-63.4zM96 64v27c0 21.3 8.3 41.4 23.4 56.6l40.6 40.6 40.6-40.6C215.7 132.4 224 112.4 224 91V64H96z"/><path class="st0" d="M304 0H16C7.2 0 0 7.2 0 16c0 8.9 7.2 16 16 16h16v59c0 38.5 15 74.6 42.2 101.8l31.2 31.2-31.2 31.2C47 282.4 32 318.6 32 357v59H16c-8.8 0-16 7.2-16 16s7.2 16 16 16h195.4c-5.2-10.1-9.4-20.8-12.6-32H64v-59c0-29.9 11.6-58 32.8-79.2l42.5-42.5c3-3 4.7-7.1 4.7-11.3 0-4.2-1.7-8.3-4.7-11.3l-42.5-42.5C75.6 149 64 120.9 64 91V32h192v59c0 29.9-11.6 58-32.8 79.2l-42.5 42.5c-3 3-4.7 7.1-4.7 11.3 0 4.3 1.7 8.3 4.7 11.3l38.8 38.7c5.8-9.1 12.4-17.6 19.7-25.5L214.6 224l31.2-31.2C273 165.6 288 129.4 288 91V32h16c8.8 0 16-7.2 16-16s-7.2-16-16-16z"/></svg>