<svg version="1.1" id="Layer_1" xmlns="http://www.w3.org/2000/svg" x="0" y="0" viewBox="0 0 103 32" xml:space="preserve"><style>.st3{fill:#fff}</style><path d="M35.7 0h12.8c1.8 0 2.9 1.5 2.5 3.2l-6 25.6c-.4 1.8-2.2 3.2-4 3.2H28.2c-1.8 0-2.9-1.5-2.5-3.2l5.9-25.5c.5-1.8 2.3-3.3 4.1-3.3z" fill="#e31837"/><path d="M47.4 0h14.7c1.8 0 1 1.5.6 3.2l-5.9 25.5c-.4 1.8-.3 3.2-2.1 3.2H39.9c-1.8 0-2.9-1.5-2.5-3.2l5.9-25.5c.5-1.7 2.3-3.2 4.1-3.2z" fill="#00447c"/><path d="M61.5 0h12.8c1.8 0 2.9 1.5 2.5 3.2l-5.9 25.5c-.4 1.8-2.2 3.2-4 3.2H54c-1.8 0-2.9-1.5-2.5-3.2l5.9-25.5c.5-1.7 2.3-3.2 4.1-3.2z" fill="#007b85"/><path class="st3" d="M59.4 24h1.2l.3-1.2h-1.2l-.3 1.2zm.9-3.2l-.4 1.4s.5-.2.7-.3.6-.1.6-.1l.3-1h-1.2m.6-2l-.4 1.3s.4-.2.7-.3.6-.1.6-.1l.3-1-1.2.1m2.7 0L62 24h.4l-.3 1.1h-.4l-.1.3h-1.5l.1-.3h-3l.3-1h.3l1.6-5.2.3-1.1h1.5l-.2.5s.4-.3.8-.4 2.6-.1 2.6-.1l-.3 1.1-.5-.1"/><path class="st3" d="M64.2 17.8h1.6v.6c0 .1.1.2.3.2h.3l-.3 1h-.9c-.7.1-1-.3-1-.6v-1.2zm.3 4.7H63l.2-.9h1.7l.2-.8h-1.7l.3-1h4.8l-.3 1h-1.6l-.2.8H68l-.3.9H66l-.3.4h.7l.2 1.1c0 .1 0 .2.1.2 0 0 .2.1.4.1h.2l-.3 1.1h-1c-.2 0-.3-.1-.4-.2-.1-.1-.2-.2-.3-.4l-.2-1.1-.8 1.1c-.2.3-.6.6-1.2.6H62l.3-1h.4c.1 0 .2-.1.3-.1.1 0 .2-.1.2-.2l1.3-1.6zm-16.9-2.4h4.1l-.3 1h-1.6l-.2.8h1.6l-.3 1h-1.6l-.4 1.3c-.1.2.4.2.6.2l.8-.1-.3 1.1h-2c-.2 0-.2 0-.4-.1-.2 0-.2-.1-.3-.2-.1-.1-.2-.2-.1-.4l.5-1.8h-.9l.3-1h.9l.2-.8h-.9l.3-1zm2.8-1.8H52l-.3 1h-2.3l-.2.2c-.1.1-.2.1-.3.1-.1.1-.4.2-.7.2h-.7l.3-1h.2c.2 0 .3 0 .4-.1.1-.1.2-.2.2-.3l.4-.7h1.6l-.2.6zm3.2 1.7s.5-.4 1.2-.6h1.3l.2-.6h-2.4l-.3 1.2zm2.2.5h-2.3l-.2.5h2.3l.2-.5m-3.1-2.7h1.4l-.2.7s.4-.4.8-.5c.3-.1 1-.2 1-.2H58l-.8 2.6c-.1.4-.3.7-.4.9-.1.1-.2.2-.4.3-.2.1-.4.2-.5.2H53l-.6 2.1c-.1.2-.1.3-.1.4 0 .1.1.1.2.1l1-.1-.3 1.1h-1.9c-.2 0-.3 0-.5-.1-.1-.1-.2-.2-.2-.3s.1-.3.1-.6l2-6.6"/><path class="st3" d="M56.9 22l-.1.6c-.1.2-.1.3-.2.5-.2.1-.3.3-.8.3H55v.7c0 .2 0 .2.1.2l.1.1h.9l-.3 1h-.9c-.6 0-1.1 0-1.2-.1-.2-.1-.2-.2-.2-.4l.1-2.8H55v.6h.5s.1-.1.1-.2l.1-.4 1.2-.1zM37.2 8.2c-.1.2-.9 4.3-.9 4.3-.2.8-.3 1.4-.8 1.8-.3.2-.6.3-.9.3-.6 0-.9-.3-1-.8v-.2l.2-1.1s.9-3.7 1.1-4.2v-.1h-2.1l-.1.3-1 4.2-.1.3-.2 1.2c0 .3.1.6.2.9.4.7 1.7.9 2.4.9.9 0 1.7-.2 2.3-.5 1-.6 1.2-1.5 1.5-2.3l.1-.4s1-3.9 1.1-4.4v-.1c-1.3-.1-1.7-.1-1.8-.1zm5.3 7.7h-1.6v-.1c.1-.3.1-.6.2-.9l.1-.4c.1-.6.3-1.3.3-1.5 0-.1.1-.5-.3-.5-.2 0-.3.1-.5.2-.1.3-.3 1.2-.4 1.6-.2.9-.2 1-.3 1.4l-.1.1h-1.6v-.1c.1-.5.2-1 .4-1.6.3-1.4.4-1.9.5-2.6h.1c.7-.1.9-.1 1.7-.3l.1.1-.1.4c.1-.1.3-.2.4-.2.4-.2.8-.2 1-.2.3 0 .7.1.9.5.2.4.1.8-.2 1.7l-.1.4c-.2 1-.2 1.2-.3 1.8l-.2.2zm2.6 0h-1.7c.1-.4.2-.5.2-.6.1-.1.1-.2.2-.7.1-.5.2-.8.2-1.2.1-.3.1-.5.1-.8.4-.1.6-.1.9-.1.2 0 .5-.1.9-.2-.1.3-.2.6-.2.9-.1.3-.2.6-.2.9-.2.7-.2.9-.2 1.1 0 .2 0 .2-.1.6v.1h-.1zm4.1-2.3c0 .2-.2.8-.4 1.1-.1.2-.3.3-.5.3-.1 0-.4 0-.4-.5 0-.2 0-.5.1-.7.2-.7.4-1.4.9-1.4.4-.1.5.4.3 1.2zm1.7 0c.2-1 .1-1.5-.2-1.7-.3-.4-.9-.6-1.5-.6-.4 0-1.2 0-1.9.7-.5.5-.7 1.1-.9 1.7-.1.6-.3 1.7.7 2.1.3.1.7.2 1 .2.7 0 1.5-.2 2.1-.8.4-.5.6-1.3.7-1.6m15.6 2.3h-1.7v-.1c.2-.7.4-1.5.6-2.2.2-1 .3-1.4.3-1.9l.1-.1c.8-.1 1-.2 1.8-.3v.1c-.2.6-.3 1.2-.4 1.8-.3 1.4-.5 2-.7 2.7z"/><path class="st3" d="M65.4 13.6c0 .2-.2.8-.4 1.1-.1.2-.4.3-.6.3-.1 0-.4 0-.4-.5 0-.2 0-.5.1-.7.2-.7.4-1.4.9-1.4.4 0 .6.5.4 1.2zm1.5.1c.2-1-.7-.1-.8-.4-.2-.5-.1-1.5-1-1.9-.3-.1-1.2 0-1.8.7-.5.4-.7 1.1-.8 1.6-.1.6-.3 1.7.7 2.1.2.2.5.2.8.2 1-.1 1.8-1.6 2.3-2.1.5-.5.6.1.6-.2m-11.6 2.2h-1.6v-.1c.1-.3.1-.6.2-.9l.1-.4c.2-.6.3-1.3.3-1.5 0-.1.1-.5-.3-.5-.2 0-.3.1-.5.2-.2.3-.4 1.3-.5 1.7-.2.9-.2 1-.3 1.4l-.1.1H51v-.1c.1-.5.2-1 .4-1.6.3-1.4.4-1.9.5-2.6h.1c.7-.1.9-.1 1.7-.3l.1.1-.1.4c.1-.1.3-.2.4-.2.4-.2.8-.2 1-.2.3 0 .7.1.9.5.2.4.1.8-.2 1.7l-.1.4c-.2 1-.2 1.2-.3 1.8l-.1.1zm5.5-7.7h-2.7c0 .1-.1.3-.1.3l-.5 2.3s-1.2 4.9-1.2 5.1h1.9c.1-.2.3-1.6.3-1.6l.2-1 .2-.2h.1c1.1 0 2.2 0 3.1-.7.6-.5 1.1-1.2 1.2-2 .1-.2.1-.4.1-.7 0-.3-.1-.7-.2-.9-.4-.6-1.3-.6-2.4-.6zm.7 2.4c-.1.5-.4.9-.9 1.2-.3.2-.8.2-1.2.2h-.3v-.1l.5-2.3v-.3h.2l1.1.1c.5.2.7.6.6 1.2m11.4.8c-.8.1-1 .1-1.7.2l-.1.1c-.5 1.2-.5 1-1 2v-.1l-.1-2.2v-.1c-.8.2-.8.2-1.6.3l-.1.1v.1c.1.5.1.4.2 1.2 0 .4.1.7.2 1.1.1.6.1.9.2 1.9-.5.8-.7 1.2-1.2 1.9v.1h1.5l.1-.1c.4-1.1 3.6-6.5 3.6-6.5zm-27.1.5c.4-.3.5-.7.1-.9-.4-.2-1-.2-1.4.2-.4.3-.5.7-.1.9.3.2 1 .1 1.4-.2z"/><path class="st3" d="M69.2 17.8l-.6 1.1c-.2.4-.6.7-1.2.7h-1l.3-1h.4c.1 0 .1-.1.1-.1l.4-.6 1.6-.1z"/></svg>