<svg xmlns="http://www.w3.org/2000/svg" viewBox="0 0 35 40"><path d="M6 16v10.1c0 1.3-1.1 2.4-2.4 2.4-1.3 0-2.6-1.1-2.6-2.4V16c0-1.3 1.3-2.4 2.6-2.4S6 14.7 6 16zm1 13.7c0 1.4 1.1 2.6 2.6 2.6h1.7v5.3c0 3.2 4.8 3.2 4.8 0v-5.3h3.2v5.3c0 3.2 4.8 3.2 4.8 0v-5.3h1.8c1.4 0 2.6-1.1 2.6-2.6V14.1H7v15.6zm21.6-16.5H6.9c0-3.7 2.2-7 5.5-8.7l-1.7-3.1c-.2-.4.4-.7.6-.3L13 4.3c3-1.3 6.5-1.3 9.4 0l1.7-3.1c.2-.4.8-.1.6.3L23 4.6c3.3 1.7 5.6 4.9 5.6 8.6zM13.7 8.4c0-.5-.4-.9-.9-.9s-.9.4-.9.9.4.9.9.9.9-.4.9-.9zm9.9 0c0-.5-.4-.9-.9-.9s-.9.4-.9.9.4.9.9.9.9-.4.9-.9zm8.2 5.2c-1.3 0-2.4 1.1-2.4 2.4v10.1c0 1.3 1.1 2.4 2.4 2.4 1.3 0 2.6-1.1 2.6-2.4V16c0-1.3-1.2-2.4-2.6-2.4z" fill="#012c6a"/></svg>