<svg version="1.1" id="Layer_1" xmlns="http://www.w3.org/2000/svg" x="0" y="0" viewBox="0 0 440.1 89.5" xml:space="preserve"><style>.st0{fill:#004f9d}</style><g id="XMLID_49_"><path id="XMLID_48_" class="st0" d="M30.6 20.5c-4.5 0-5.9 2-5.9 6.4v7.3h12.1l-1.2 11.9H24.8v36H10.2V46.2H.5V34.3h9.7v-7.1c0-12 4.9-18.3 18.3-18.3 2.9 0 6.3.2 8.4.6v11.1"/><path id="XMLID_66_" class="st0" d="M37.8 56.8c0-13.3 6.3-23.4 19.7-23.4 7.2 0 11.6 3.7 13.8 8.4v-7.3h13.9v47.9h-14v-7.2c-2 4.6-6.6 8.2-13.8 8.2-13.2 0-19.7-10.1-19.7-23.4m14.6.1c0 7.1 2.6 11.9 9.4 11.9 6 0 8.9-4.3 8.9-11.1V56c0-6.8-3-11.1-8.9-11.1-6.7 0-9.4 4.7-9.4 11.9v3.3z"/><path id="XMLID_45_" class="st0" d="M115.3 33.4c5.6 0 11 1.2 13.9 3.3L125.9 47c-2.2-1.1-5.9-2.2-9.7-2.2-7.9 0-11.2 4.5-11.2 12.3v2.8c0 7.8 3.5 12.3 11.2 12.3 3.7 0 7.5-1.1 9.7-2.2l3.3 10.3c-2.9 2-8.2 3.3-13.9 3.3-17.1 0-24.7-9.2-24.7-23.8v-2.2c0-15.1 7.6-24.2 24.7-24.2"/><path id="XMLID_62_" class="st0" d="M131 60.2V56c0-13.6 7.8-22.6 23.5-22.6 14.9 0 21.5 9 21.5 22.4v7.7h-30.5c.3 6.6 3.3 9.5 11.2 9.5 5.4 0 11.1-1.1 15.5-2.9l2.6 9.9c-3.7 2-11.6 3.6-18.6 3.6-18.3-.2-25.2-9.4-25.2-23.4m14.6-6.3h17.5v-1.2c0-5.2-2.1-9.4-8.4-9.4-6.6.1-9.1 4.1-9.1 10.6"/><path id="XMLID_59_" class="st0" d="M229.8 59.8c0 13.3-6.4 23.4-19.8 23.4-7.2 0-12.3-3.6-14.2-8.2v7.2h-13.7V10.3l14.5-1.2v32.1c2.1-4.2 6.7-7.7 13.5-7.7 13.2 0 19.8 10.1 19.8 23.4m-14.6-.4c0-6.7-2.6-11.8-9.6-11.8-6 0-9.2 4.2-9.2 11.1v5c0 6.8 3.3 11.1 9.2 11.1 6.9 0 9.6-5.1 9.6-11.8v-3.6z"/><path id="XMLID_56_" class="st0" d="M234.6 59.5v-2.4c0-13.8 7.9-23.7 23.8-23.7s23.8 9.9 23.8 23.7v2.4c0 13.8-7.9 23.7-23.8 23.7s-23.8-9.9-23.8-23.7m33.2-3.5c0-6.3-2.6-11.3-9.4-11.3S249 49.8 249 56v4.4c0 6.3 2.6 11.3 9.4 11.3s9.4-5.1 9.4-11.3V56z"/><path id="XMLID_53_" class="st0" d="M287.2 59.5v-2.4c0-13.8 7.9-23.7 23.8-23.7s23.8 9.9 23.8 23.7v2.4c0 13.8-7.9 23.7-23.8 23.7-16.1 0-23.8-9.9-23.8-23.7m33.1-3.5c0-6.3-2.6-11.3-9.4-11.3-6.7 0-9.4 5.1-9.4 11.3v4.4c0 6.3 2.6 11.3 9.4 11.3 6.7 0 9.4-5.1 9.4-11.3V56z"/><path id="XMLID_32_" class="st0" d="M354.7 57.2l14.4-22.9h15.2l-14.9 23.6L385 82.2h-15.5l-14.8-23.4v23.4h-14.4V10.3L354.7 9"/></g></svg>