<svg xmlns="http://www.w3.org/2000/svg" xmlns:xlink="http://www.w3.org/1999/xlink" viewBox="0 0 45 23"><defs><path id="a" d="M13.3 4.3l-3.8 9.6-1.6-8.2c-.1-.9-.8-1.5-1.6-1.5H.1l-.1.5c1.3.3 2.7.7 3.6 1.2.5.3.7.5.9 1.2l2.9 11.2h3.8l5.9-14.1-3.8.1zm5.3 0l-3 14.1h3.6l3-14.1h-3.6zm20.9 3.8l1.1 5.3h-3l1.9-5.3zM39 4.3c-.7 0-1.3.4-1.6 1l-5.4 13h3.8l.8-2.1h4.7l.4 2.1H45l-2.9-14H39zM23.3 8.6c0 2 1.8 3.2 3.2 3.8 1.4.7 1.9 1.1 1.9 1.8 0 .9-1.1 1.4-2.2 1.4-1.8 0-2.9-.5-3.7-.9l-.6 3.1c.9.4 2.4.7 4 .8 3.8 0 6.3-1.9 6.3-4.8 0-3.7-5.1-3.9-5.1-5.6 0-.5.5-1 1.5-1.2.5-.1 2-.1 3.6.6l.6-3c-.9-.3-2-.6-3.4-.6-3.6 0-6.1 1.9-6.1 4.6"/></defs><clipPath id="b"><use xlink:href="#a" overflow="visible"/></clipPath><linearGradient id="c" gradientUnits="userSpaceOnUse" x1="-182.967" y1="-419.505" x2="-182.612" y2="-419.505" gradientTransform="translate(23153.725 53097.77) scale(126.5456)"><stop offset="0" stop-color="#241f5d"/><stop offset="1" stop-color="#034ea1"/></linearGradient><path clip-path="url(#b)" fill="url(#c)" d="M0 4h45v14.5H0z"/></svg>